<?xml version="1.0" ?><!DOCTYPE svg  PUBLIC '-//W3C//DTD SVG 1.1//EN'  'http://www.w3.org/Graphics/SVG/1.1/DTD/svg11.dtd'><svg enable-background="new 0 0 91 91" height="91px" id="Layer_1" version="1.1" viewBox="0 0 91 91" width="91px" xml:space="preserve" xmlns="http://www.w3.org/2000/svg" xmlns:xlink="http://www.w3.org/1999/xlink"><g><path d="M26.618,69.43c0.58,0.078,1.414,0.156,2.41,0.156c4.28,0,11.537-1.473,14.468-10.706l25.979-26.366   c2.083-2.113,2.059-5.529-0.058-7.615c-2.043-2.008-5.6-1.984-7.612,0.059L36.043,51.105c-4.038,0.211-10.714,2.785-11.685,11.363   c-0.137,0.382-0.695,1.697-1.9,1.906c-1.168,0.202-1.675,1.088-1.66,1.875C20.838,68.343,24.461,69.141,26.618,69.43z    M64.227,27.342c0.736-0.746,2.058-0.758,2.805-0.02c0.779,0.768,0.789,2.025,0.021,2.805L47.09,50.39l-2.826-2.783L64.227,27.342z    M41.877,50.027l2.826,2.783l-2.706,2.747l-2.825-2.783L41.877,50.027z M27.67,63.271L27.721,63   c0.742-7.223,6.361-8.323,8.377-8.481l3.962,3.905c-1.288,3.609-3.525,6.006-6.684,7.101c-2.618,0.905-5.286,0.755-7.163,0.392   C27.005,65.025,27.473,64.002,27.67,63.271z"/></g></svg>